<svg width="70" height="70" viewBox="0 0 70 70" fill="none" xmlns="http://www.w3.org/2000/svg">
<path d="M45.5 35C45.5 37.0767 44.8842 39.1068 43.7304 40.8335C42.5767 42.5602 40.9368 43.906 39.0182 44.7007C37.0995 45.4955 34.9884 45.7034 32.9516 45.2982C30.9148 44.8931 29.0438 43.8931 27.5754 42.4246C26.1069 40.9562 25.1069 39.0852 24.7018 37.0484C24.2966 35.0116 24.5045 32.9004 25.2993 30.9818C26.094 29.0632 27.4398 27.4233 29.1665 26.2696C30.8932 25.1158 32.9233 24.5 35 24.5C37.7848 24.5 40.4555 25.6062 42.4246 27.5754C44.3937 29.5445 45.5 32.2152 45.5 35ZM69.125 19.25V50.75C69.1198 55.6218 67.1822 60.2925 63.7373 63.7373C60.2925 67.1822 55.6218 69.1198 50.75 69.125H19.25C14.3782 69.1198 9.70752 67.1822 6.26267 63.7373C2.81782 60.2925 0.880211 55.6218 0.875 50.75V19.25C0.880211 14.3782 2.81782 9.70752 6.26267 6.26267C9.70752 2.81782 14.3782 0.880211 19.25 0.875H50.75C55.6218 0.880211 60.2925 2.81782 63.7373 6.26267C67.1822 9.70752 69.1198 14.3782 69.125 19.25ZM50.75 35C50.75 31.8849 49.8263 28.8398 48.0956 26.2498C46.365 23.6597 43.9052 21.641 41.0273 20.4489C38.1493 19.2568 34.9825 18.9449 31.9273 19.5526C28.8721 20.1604 26.0657 21.6604 23.8631 23.8631C21.6604 26.0657 20.1604 28.8721 19.5526 31.9273C18.9449 34.9825 19.2568 38.1493 20.4489 41.0273C21.641 43.9052 23.6597 46.365 26.2498 48.0956C28.8398 49.8263 31.8849 50.75 35 50.75C39.1758 50.7457 43.1794 49.0849 46.1321 46.1321C49.0849 43.1794 50.7457 39.1758 50.75 35ZM58.625 15.3125C58.625 14.5337 58.3941 13.7725 57.9614 13.1249C57.5288 12.4774 56.9138 11.9727 56.1943 11.6747C55.4748 11.3767 54.6831 11.2987 53.9193 11.4507C53.1555 11.6026 52.4539 11.9776 51.9033 12.5283C51.3526 13.0789 50.9776 13.7805 50.8257 14.5443C50.6737 15.3081 50.7517 16.0998 51.0497 16.8193C51.3477 17.5388 51.8524 18.1538 52.4999 18.5864C53.1475 19.0191 53.9087 19.25 54.6875 19.25C55.7318 19.25 56.7333 18.8352 57.4717 18.0967C58.2102 17.3583 58.625 16.3568 58.625 15.3125Z" fill="white" fill-opacity="0.5"/>
</svg>
