<svg width="24" height="24" viewBox="0 0 24 24" fill="none" xmlns="http://www.w3.org/2000/svg">
<g clip-path="url(#clip0_2003_1794)">
<path d="M7.02986 0.0842303C5.75306 0.14447 4.88114 0.34823 4.1189 0.64775C3.33002 0.95519 2.66138 1.36775 1.9961 2.03543C1.33082 2.70311 0.921135 3.37223 0.615855 4.16231C0.320415 4.92623 0.120255 5.79887 0.0638553 7.07639C0.00745532 8.35391 -0.00502468 8.76455 0.00121532 12.0233C0.00745532 15.282 0.0218553 15.6905 0.0837753 16.9706C0.144735 18.2472 0.347775 19.1189 0.647295 19.8814C0.955215 20.6702 1.3673 21.3386 2.03522 22.0042C2.70314 22.6697 3.37178 23.0784 4.16378 23.3842C4.92698 23.6791 5.79986 23.8802 7.07714 23.9362C8.35442 23.9921 8.76554 24.005 12.0233 23.9988C15.2811 23.9925 15.6912 23.9782 16.9711 23.9174C18.2511 23.8567 19.1182 23.6522 19.8809 23.3542C20.6698 23.0455 21.3387 22.6341 22.0037 21.966C22.6687 21.2978 23.0782 20.6282 23.3832 19.8377C23.6789 19.0745 23.8798 18.2016 23.9352 16.9253C23.9911 15.6444 24.0043 15.2354 23.9981 11.9772C23.9919 8.71895 23.9772 8.31047 23.9165 7.03079C23.8558 5.75111 23.6525 4.88207 23.3532 4.11911C23.0448 3.33023 22.6332 2.66231 21.9655 1.99631C21.2979 1.33031 20.6278 0.92111 19.8375 0.61679C19.0738 0.32135 18.2014 0.11999 16.9241 0.0647903C15.6468 0.00959031 15.2357 -0.00456969 11.9767 0.00167031C8.71778 0.00791031 8.30978 0.0218303 7.02986 0.0842303ZM7.17002 21.7774C6.00002 21.7265 5.36474 21.5321 4.94138 21.3694C4.38073 21.1534 3.98138 20.8922 3.55946 20.4744C3.13754 20.0566 2.87834 19.6558 2.65946 19.0963C2.49506 18.673 2.29706 18.0384 2.24234 16.8684C2.18282 15.6038 2.17034 15.2242 2.16338 12.0204C2.15642 8.81663 2.16866 8.43743 2.2241 7.17239C2.27402 6.00335 2.46962 5.36735 2.6321 4.94423C2.8481 4.38287 3.10826 3.98423 3.52706 3.56255C3.94586 3.14087 4.34546 2.88119 4.90538 2.66231C5.32826 2.49719 5.96282 2.30087 7.13234 2.24519C8.39786 2.18519 8.77706 2.17319 11.9803 2.16623C15.1836 2.15927 15.5638 2.17127 16.8298 2.22695C17.9988 2.27783 18.6351 2.47151 19.0577 2.63495C19.6186 2.85095 20.0177 3.11039 20.4394 3.52991C20.8611 3.94943 21.121 4.34759 21.3399 4.90871C21.5052 5.33039 21.7015 5.96471 21.7567 7.13495C21.817 8.40047 21.8307 8.77991 21.8364 11.983C21.8422 15.186 21.8309 15.5664 21.7755 16.831C21.7243 18.001 21.5304 18.6365 21.3675 19.0603C21.1515 19.6207 20.8911 20.0203 20.472 20.4417C20.053 20.8632 19.6539 21.1229 19.0937 21.3418C18.6713 21.5066 18.036 21.7034 16.8675 21.7591C15.6019 21.8186 15.2227 21.8311 12.0183 21.8381C8.81378 21.845 8.43578 21.8321 7.17026 21.7774M16.9527 5.58671C16.9531 5.87154 17.0381 6.14982 17.1967 6.38637C17.3554 6.62293 17.5806 6.80712 17.8439 6.91566C18.1073 7.02419 18.3969 7.0522 18.6761 6.99613C18.9554 6.94006 19.2117 6.80244 19.4128 6.60067C19.6138 6.3989 19.7505 6.14205 19.8055 5.86259C19.8606 5.58313 19.8315 5.29363 19.722 5.0307C19.6125 4.76776 19.4275 4.5432 19.1903 4.38543C18.9532 4.22765 18.6746 4.14374 18.3898 4.14431C18.0079 4.14507 17.6421 4.29745 17.3726 4.56794C17.1031 4.83843 16.952 5.20488 16.9527 5.58671ZM5.83826 12.0122C5.84498 15.4154 8.60882 18.168 12.0113 18.1615C15.4138 18.155 18.1683 15.3914 18.1618 11.9882C18.1553 8.58503 15.3907 5.83175 11.9878 5.83847C8.58482 5.84519 5.83178 8.60951 5.83826 12.0122ZM7.9997 12.0079C7.99813 11.2168 8.2312 10.4429 8.66943 9.78426C9.10767 9.12558 9.73137 8.61164 10.4617 8.30744C11.192 8.00324 11.9961 7.92243 12.7724 8.07524C13.5486 8.22805 14.2621 8.60761 14.8226 9.16592C15.3832 9.72423 15.7656 10.4362 15.9214 11.2119C16.0773 11.9875 15.9997 12.7919 15.6984 13.5234C15.3971 14.255 14.8856 14.8807 14.2287 15.3215C13.5717 15.7624 12.7988 15.9985 12.0077 16.0001C11.4824 16.0012 10.962 15.8988 10.4763 15.6987C9.99051 15.4987 9.54894 15.2049 9.17675 14.8342C8.80456 14.4635 8.50905 14.0231 8.30708 13.5381C8.10512 13.0532 8.00067 12.5332 7.9997 12.0079Z" fill="black"/>
</g>
<defs>
<clipPath id="clip0_2003_1794">
<rect width="24" height="24" fill="white"/>
</clipPath>
</defs>
</svg>
