<svg width="184" height="29" viewBox="0 0 184 29" fill="none" xmlns="http://www.w3.org/2000/svg">
<g clip-path="url(#clip0_2003_663)">
<path d="M5.27327 0.10068C3.17643 0.977841 0.870728 3.45333 0.142977 6.56697C-0.780344 10.5086 3.05836 12.1732 3.372 11.6301C3.74105 10.986 2.68194 10.7698 2.46567 8.72598C2.1874 6.08304 3.41335 3.13021 4.96035 1.83453C5.24892 1.59768 5.23491 1.93192 5.23491 2.54805C5.23491 3.65924 5.17291 13.6009 5.17291 15.6764C5.17291 18.4861 5.05778 19.3708 4.84521 20.2444C4.6363 21.1327 4.29831 21.7318 4.55294 21.965C4.84151 22.2225 6.06745 21.6094 6.77821 20.6177C7.62846 19.4298 7.9281 18.0021 7.98345 16.4526C8.04617 14.5866 8.04251 11.6198 8.04617 9.93085C8.04617 8.37769 8.07052 3.83704 8.02181 1.10335C8.00781 0.434921 6.14788 -0.265325 5.27327 0.10068ZM101.947 14.8508C101.648 14.8508 101.505 15.1644 101.39 15.6905C100.993 17.5255 100.575 17.9394 100.035 17.9394C99.4328 17.9394 98.8925 17.0312 98.7501 15.2131C98.6423 13.7854 98.6593 11.1528 98.7988 8.53418C98.8268 7.99779 98.6799 7.46577 97.2378 6.93973C96.6148 6.71688 95.7122 6.38264 95.2634 7.46876C93.9917 10.5301 93.4972 12.9671 93.3784 13.9529C93.3756 14.0045 93.3127 14.0119 93.3016 13.8938C93.2293 13.1029 93.0618 11.6648 93.0411 8.64192C93.0337 8.05756 92.9119 7.5521 92.2573 7.14116C91.8358 6.87698 90.5538 6.40328 90.0903 6.96408C89.6932 7.42371 89.2304 8.65664 88.7463 10.1191C88.3558 11.3099 88.0843 12.1179 88.0843 12.1179C88.0843 12.1179 88.087 8.90677 88.0946 7.6879C88.0946 7.22821 87.7809 7.07547 87.6872 7.04742C87.2584 6.92202 86.4118 6.71688 86.0568 6.71688C85.6147 6.71688 85.5099 6.96408 85.5099 7.32267C85.5099 7.36766 85.4369 11.5461 85.4369 14.4679V14.8788C85.1962 16.2232 84.4028 18.0479 83.5422 18.0479C82.6816 18.0479 82.2742 17.2849 82.2742 13.8031C82.2742 11.7726 82.337 10.8886 82.365 9.41887C82.382 8.57253 82.4166 7.92176 82.4137 7.77201C82.4063 7.32267 81.6225 7.09246 81.2601 7.00907C80.8948 6.92202 80.5774 6.89396 80.3272 6.90431C79.9789 6.92567 79.7316 7.15516 79.7316 7.47612V7.96309C79.2821 7.25327 78.5536 6.75822 78.0665 6.61578C76.7639 6.22919 75.4013 6.57372 74.374 8.00808C73.5591 9.15103 73.0676 10.4422 72.8764 12.2987C72.7332 13.657 72.779 15.0323 73.0329 16.1952C72.7266 17.5078 72.162 18.0479 71.5457 18.0479C70.6467 18.0479 69.9995 16.5847 70.0725 14.0532C70.125 12.3894 70.4556 11.2229 70.8209 9.53026C70.9781 8.80938 70.849 8.43385 70.5323 8.06785C70.243 7.74025 69.6231 7.56981 68.7352 7.77494C68.1041 7.92474 67.1955 8.08484 66.3696 8.2073C66.3696 8.2073 66.4183 8.00808 66.4604 7.65691C66.673 5.81449 64.6699 5.96429 64.0322 6.55308C63.6492 6.90431 63.3879 7.31896 63.2905 8.0642C63.134 9.24843 64.0986 9.80546 64.0986 9.80546C63.782 11.2539 63.0085 13.1479 62.204 14.5166C61.7752 15.2515 61.4475 15.7916 61.0231 16.3693C61.0192 16.1568 61.0192 15.9406 61.0192 15.7288C61.0119 12.6816 61.0502 10.2829 61.068 9.41887C61.0857 8.57253 61.1204 7.93874 61.1204 7.78894C61.113 7.46134 60.9218 7.33296 60.5173 7.17951C60.1623 7.04078 59.7409 6.93973 59.3055 6.90431C58.7585 6.86298 58.4242 7.15516 58.4346 7.49975V7.96309C57.9821 7.25327 57.2536 6.75822 56.7731 6.61578C55.4668 6.22919 54.105 6.57372 53.0776 8.00808C52.2658 9.15103 51.7292 10.7492 51.5757 12.2809C51.4369 13.716 51.4613 14.9275 51.6561 15.9517C51.4473 16.975 50.8516 18.0479 50.1763 18.0479C49.3157 18.0479 48.8242 17.2849 48.8242 13.8031C48.8242 11.7726 48.8869 10.8886 48.9187 9.41887C48.9356 8.57253 48.9674 7.92176 48.9637 7.77201C48.9599 7.32267 48.1769 7.09246 47.8108 7.00907C47.4314 6.91903 47.1001 6.89103 46.8491 6.90431C46.5148 6.93231 46.2815 7.22821 46.2815 7.4547V7.96309C45.8291 7.25327 45.1007 6.75822 44.6165 6.61578C43.3138 6.22919 41.9624 6.58114 40.9276 8.00808C40.2523 8.93853 39.7054 9.97225 39.4235 12.264C39.3467 12.9258 39.3083 13.5449 39.312 14.1233C39.0433 15.7665 37.8558 17.6612 36.8874 17.6612C36.3162 17.6612 35.773 16.5604 35.773 14.2104C35.773 11.0834 35.9678 6.62613 36.0025 6.19449C36.0025 6.19449 37.2284 6.17308 37.469 6.17014C38.0787 6.16644 38.6359 6.18049 39.4478 6.13844C39.8589 6.11779 40.2523 4.65167 39.8272 4.46723C39.639 4.38677 38.2876 4.31372 37.751 4.30343C37.2985 4.29308 36.0475 4.19939 36.0475 4.19939C36.0475 4.19939 36.1597 1.24285 36.1841 0.932962C36.2047 0.66806 35.8704 0.536023 35.6755 0.455562C35.2046 0.254132 34.7832 0.159725 34.2887 0.0586229C33.5957 -0.0837616 33.2857 0.05569 33.2266 0.636351C33.1359 1.51805 33.0871 4.102 33.0871 4.102C32.5786 4.102 30.8545 4.00018 30.3489 4.00018C29.8795 4.00018 29.3702 6.02034 30.022 6.04469C30.7711 6.07275 32.0701 6.10081 32.9336 6.12438C32.9336 6.12438 32.8952 10.6554 32.8952 12.0515V12.4831C32.4185 14.9585 30.7497 16.2963 30.7497 16.2963C31.1084 14.6561 30.377 13.4268 29.0536 12.3894C28.5657 12.0028 27.6048 11.2745 26.528 10.4843C26.528 10.4843 27.1516 9.86821 27.7051 8.63528C28.0956 7.76094 28.1133 6.75523 27.1516 6.53537C25.5633 6.17014 24.2569 7.33667 23.8635 8.58288C23.5639 9.54426 23.7211 10.2614 24.316 11.003L24.4518 11.1705C24.0968 11.8596 23.6022 12.7893 23.1875 13.5102C22.0279 15.5127 21.1533 17.0939 20.495 17.0939C19.9658 17.0939 19.9724 15.4883 19.9724 13.9839C19.9724 12.6882 20.0699 10.7351 20.1466 8.71569C20.171 8.05014 19.8367 7.6672 19.2765 7.32267C18.9347 7.11382 18.2099 6.70288 17.7885 6.70288C17.1619 6.70288 15.3433 6.78622 13.6266 11.7482C13.4103 12.3754 12.9852 13.5139 12.9852 13.5139L13.0236 7.54546C13.0236 7.40601 12.9505 7.27397 12.78 7.17951C12.4907 7.02307 11.7142 6.70288 11.0315 6.70288C10.7001 6.70288 10.5363 6.85633 10.5363 7.15887L10.4809 16.4911C10.4809 17.2016 10.4979 18.0302 10.568 18.3925C10.6374 18.7547 10.7525 19.0506 10.892 19.2277C11.0315 19.3988 11.1946 19.5309 11.4596 19.59C11.7068 19.6423 13.0686 19.8128 13.1387 19.2941C13.2258 18.6706 13.2287 17.9992 13.9432 15.4817C15.0576 11.5674 16.5072 9.65937 17.1899 8.97982C17.3117 8.86178 17.4475 8.85442 17.4401 9.04993C17.4091 9.90949 17.308 12.0515 17.2386 13.8725C17.0541 18.7511 17.9383 19.6527 19.21 19.6527C20.1784 19.6527 21.5438 18.6883 23.0103 16.2512C23.9263 14.7291 24.8112 13.2423 25.4519 12.1666C25.891 12.5768 26.3921 13.0195 26.8903 13.4932C28.0506 14.5896 28.43 15.6344 28.176 16.6239C27.9841 17.3823 27.2564 18.1623 25.9641 17.4037C25.5877 17.1839 25.4275 17.0134 25.0481 16.7625C24.8459 16.6268 24.5322 16.5885 24.3477 16.7279C23.8599 17.0939 23.5845 17.5565 23.4244 18.1313C23.2745 18.692 23.8355 18.9842 24.4171 19.2417C24.9153 19.4682 25.9884 19.6667 26.6741 19.691C29.3459 19.7818 31.4848 18.4028 32.972 14.8508C33.2406 17.9188 34.3721 19.6564 36.3405 19.6564C37.6602 19.6564 38.9806 17.9534 39.5592 16.2786C39.7224 16.961 39.9696 17.5528 40.287 18.0582C41.8059 20.4606 44.7523 19.9456 46.2291 17.9047C46.689 17.2709 46.7591 17.0444 46.7591 17.0444C46.9746 18.9709 48.5282 19.649 49.4168 19.649C50.4162 19.649 51.4406 19.1761 52.161 17.5528C52.2481 17.7306 52.3389 17.8981 52.4437 18.0582C53.9589 20.4606 56.9053 19.9456 58.3858 17.9047C58.4523 17.8037 58.515 17.7203 58.5666 17.6399L58.6124 18.9074C58.6124 18.9074 57.7659 19.6807 57.247 20.1574C54.9656 22.2506 53.2305 23.8384 53.102 25.6838C52.9418 28.0412 54.8505 28.9155 56.2994 29.0299C57.8323 29.1524 59.149 28.306 59.9564 27.1152C60.6672 26.0704 61.1344 23.8244 61.0997 21.6028C61.0857 20.7115 61.0643 19.5833 61.0436 18.3681C61.8481 17.4421 62.7537 16.2645 63.5833 14.8863C64.4919 13.3884 65.4602 11.3719 65.9547 9.80181C65.9547 9.80181 66.8013 9.80917 67.7003 9.75311C67.9895 9.7354 68.073 9.79517 68.0169 10.004C67.9541 10.2578 66.8817 14.3985 67.8604 17.1566C68.5328 19.0432 70.0407 19.6527 70.9396 19.6527C71.9877 19.6527 72.9914 18.8587 73.5272 17.6819C73.5937 17.811 73.6601 17.9394 73.7369 18.0582C75.2521 20.4606 78.1881 19.9419 79.6791 17.9047C80.0171 17.4421 80.2053 17.0444 80.2053 17.0444C80.5256 19.0403 82.0792 19.6564 82.9671 19.6564C83.8971 19.6564 84.7746 19.2771 85.4891 17.5912C85.5172 18.3334 85.5622 18.9392 85.6389 19.1303C85.6839 19.2491 85.9489 19.3952 86.1371 19.4682C86.9866 19.7818 87.8509 19.632 88.1675 19.5656C88.3904 19.5206 88.5646 19.3465 88.586 18.8868C88.648 17.6819 88.6096 15.6588 88.9757 14.1514C89.592 11.6302 90.1633 10.6518 90.4349 10.1678C90.5854 9.89549 90.7589 9.8505 90.7626 10.136C90.7729 10.7174 90.8046 12.4241 91.0445 14.7225C91.2158 16.4077 91.449 17.4067 91.6298 17.724C92.1384 18.6256 92.7723 18.6677 93.2845 18.6677C93.6122 18.6677 94.295 18.5769 94.2352 18.0021C94.2042 17.724 94.2566 15.993 94.8588 13.5072C95.2559 11.881 95.9143 10.415 96.1512 9.87851C96.242 9.68006 96.2803 9.83352 96.2803 9.86451C96.2279 10.9823 96.1165 14.642 96.569 16.6408C97.1897 19.3539 98.9758 19.6564 99.5994 19.6564C100.926 19.6564 102.017 18.6462 102.383 15.9864C102.473 15.3452 102.341 14.8508 101.947 14.8508ZM46.2535 13.2076C46.1804 14.6139 45.9051 15.7915 45.4667 16.6445C44.6651 18.1939 43.0879 18.6816 42.3941 16.4497C41.8893 14.8375 42.0598 12.6365 42.2724 11.4486C42.5786 9.68665 43.3558 8.44044 44.5677 8.55477C45.8077 8.67728 46.4136 10.2754 46.2535 13.2076ZM58.4066 13.2283C58.3372 14.5549 57.9925 15.8919 57.6161 16.6445C56.8397 18.2043 55.2159 18.692 54.5435 16.4497C54.0845 14.9135 54.1922 12.9324 54.4218 11.6855C54.7185 10.0629 55.4322 8.55477 56.7179 8.55477C57.9682 8.55477 58.5845 9.92715 58.4066 13.2283ZM58.724 22.2956C58.7062 24.7231 58.3269 26.8473 57.5113 27.4671C56.3481 28.3444 54.7842 27.6825 55.1082 25.9139C55.3938 24.3468 56.7489 22.7486 58.7277 20.7948C58.7277 20.7948 58.7343 21.2404 58.7238 22.2956H58.724ZM79.7072 13.2423C79.637 14.7017 79.313 15.8402 78.913 16.6445C78.1358 18.2043 76.5268 18.6882 75.8404 16.4497C75.4677 15.2271 75.45 13.1862 75.7186 11.484C75.9903 9.74935 76.7534 8.44044 78.014 8.55477C79.2606 8.67358 79.843 10.2754 79.7072 13.2423Z" fill="#231E1F"/>
</g>
<defs>
<clipPath id="clip0_2003_663">
<rect width="184" height="29" fill="white"/>
</clipPath>
</defs>
</svg>
