<svg width="24" height="24" viewBox="0 0 24 24" fill="none" xmlns="http://www.w3.org/2000/svg">
<path d="M16.582 2.34628C15.7137 2.31848 14.8504 2.48692 14.0562 2.83905C13.2621 3.19118 12.5576 3.71794 11.9952 4.38008C11.4333 3.71986 10.7303 3.19433 9.93804 2.8423C9.14577 2.49028 8.28454 2.32076 7.41797 2.34628C5.65369 2.41527 3.9885 3.18006 2.78654 4.4734C1.58458 5.76674 0.943648 7.48341 1.00389 9.24801C1.00389 12.6998 3.44216 14.8197 5.79915 16.8688C6.06975 17.104 6.34322 17.3411 6.61478 17.5831L7.59678 18.4608C8.66774 19.4799 9.79051 20.4431 10.9606 21.3466C11.2702 21.5471 11.6312 21.6537 12 21.6537C12.3688 21.6537 12.7298 21.5471 13.0394 21.3466C14.2467 20.4155 15.4041 19.4213 16.5065 18.3681L17.3881 17.5802C17.6683 17.3316 17.9522 17.0839 18.2343 16.8401C20.466 14.9038 22.9961 12.7094 22.9961 9.24801C23.0564 7.48341 22.4154 5.76674 21.2135 4.4734C20.0115 3.18006 18.3463 2.41527 16.582 2.34628Z" fill="white"/>
</svg>
