<svg width="24" height="24" viewBox="0 0 24 24" fill="none" xmlns="http://www.w3.org/2000/svg">
<path d="M16.582 2.34634C15.7137 2.31854 14.8504 2.48698 14.0562 2.83911C13.2621 3.19124 12.5576 3.718 11.9952 4.38014C11.4333 3.71992 10.7303 3.19439 9.93804 2.84236C9.14577 2.49034 8.28454 2.32082 7.41797 2.34634C5.65369 2.41533 3.9885 3.18012 2.78654 4.47346C1.58458 5.76681 0.943648 7.48347 1.00389 9.24807C1.00389 12.6999 3.44216 14.8197 5.79915 16.8689C6.06975 17.1041 6.34322 17.3412 6.61478 17.5831L7.59678 18.4609C8.66774 19.48 9.79051 20.4432 10.9606 21.3467C11.2702 21.5471 11.6312 21.6538 12 21.6538C12.3688 21.6538 12.7298 21.5471 13.0394 21.3467C14.2467 20.4156 15.4041 19.4214 16.5065 18.3681L17.3881 17.5803C17.6683 17.3316 17.9522 17.084 18.2343 16.8402C20.466 14.9039 22.9961 12.7095 22.9961 9.24807C23.0564 7.48347 22.4154 5.76681 21.2135 4.47346C20.0115 3.18012 18.3463 2.41533 16.582 2.34634Z" fill="#FF3040"/>
</svg>
