<svg width="24" height="24" viewBox="0 0 24 24" fill="none" xmlns="http://www.w3.org/2000/svg">
<path d="M16.582 4.25907C17.8389 4.32856 19.0173 4.89197 19.8605 5.82655C20.7038 6.76112 21.1434 7.9911 21.0837 9.24844C21.0837 12.1858 18.5479 13.9901 16.1145 16.154C13.7125 18.2987 12.4188 19.471 12 19.7416C11.5439 19.4461 9.9509 17.9985 7.88554 16.154C5.44154 13.9815 2.91626 12.16 2.91626 9.24844C2.85656 7.9911 3.29624 6.76112 4.13947 5.82655C4.9827 4.89197 6.16113 4.32856 7.41797 4.25907C8.11421 4.23797 8.80401 4.39789 9.41994 4.72321C10.0359 5.04852 10.5568 5.52808 10.9319 6.11503C11.7351 7.23854 11.869 7.80078 12.0029 7.80078C12.1367 7.80078 12.2687 7.23854 13.0642 6.11216C13.4372 5.5225 13.9584 5.04103 14.5757 4.71585C15.193 4.39068 15.8848 4.23317 16.582 4.25907ZM16.582 2.34671C15.7137 2.31891 14.8504 2.48735 14.0562 2.83948C13.2621 3.19161 12.5576 3.71836 11.9952 4.38051C11.4333 3.72029 10.7303 3.19475 9.93804 2.84273C9.14577 2.49071 8.28454 2.32119 7.41797 2.34671C5.65369 2.4157 3.9885 3.18048 2.78654 4.47383C1.58458 5.76717 0.943648 7.48384 1.00389 9.24844C1.00389 12.7003 3.44216 14.8201 5.79915 16.8692C6.06975 17.1044 6.34322 17.3416 6.61478 17.5835L7.59678 18.4613C8.66774 19.4803 9.79051 20.4435 10.9606 21.347C11.2702 21.5475 11.6312 21.6541 12 21.6541C12.3688 21.6541 12.7298 21.5475 13.0394 21.347C14.2467 20.416 15.4041 19.4217 16.5065 18.3685L17.3881 17.5806C17.6683 17.332 17.9522 17.0844 18.2343 16.8405C20.466 14.9043 22.9961 12.7098 22.9961 9.24844C23.0564 7.48384 22.4154 5.76717 21.2135 4.47383C20.0115 3.18048 18.3463 2.4157 16.582 2.34671Z" fill="#262626"/>
</svg>
